<svg width="221" height="70" xmlns="http://www.w3.org/2000/svg" xmlns:xlink="http://www.w3.org/1999/xlink" xml:space="preserve" overflow="hidden"><defs><clipPath id="clip0"><path d="M49.2904 11.6145 49.2066 29.0969C49.2299 36.9322 48.226 46.6322 40.1909 52.1999L40.1831 52.2045 40.1754 52.2123C36.9219 54.5685 34.5078 56.0102 31.8175 57.2622 24.7442 53.444 19.947 50.6151 17.2815 44.8514 15.08 40.0924 14.6362 35.8699 14.4392 29.9523L14.4423 30.0098 14.4563 11.6286" fill-rule="nonzero" clip-rule="nonzero"/></clipPath></defs><g><g><path d="M171.602 810.195 391.438 810.195 391.438 878.664 171.602 878.664 171.602 810.195Z" fill="#8E0A26" fill-rule="nonzero" fill-opacity="1" transform="matrix(1 0 0 -1.00151 -171.018 880.7)"/><path d="M0 0 2.6003 0C7.46268 0 10.5439 3.66928 10.5439 7.66592 10.5439 9.25465 10.063 10.7472 9.24379 11.8053 8.13758 13.2032 6.83743 13.7323 4.5257 13.7323L3.12936 13.7323C0.626803 13.7323 0 12.8169 0 9.11036L0 0ZM-6.78778 14.8416 5.2006 14.8416C7.31839 14.8416 8.80472 14.6321 10.1111 14.2163 13.2839 13.2063 14.7811 9.62856 14.7811 6.88397 14.7811 3.17746 11.8922 0.0480963 7.60697-0.867284L7.60697-0.963477C9.39273-1.52201 10.0133-1.8742 11.0109-2.69184 12.9146-4.24799 13.3506-6.33785 13.3506-8.2167 13.3506-10.4307 12.1668-12.9457 9.70614-14.1527 8.11896-14.93 5.92205-15.3225 3.03317-15.3225L-6.78778-15.3225-6.78778-14.4909-6.40301-14.4909C-4.28212-14.4909-3.65842-11.8922-3.65842-8.76283L-3.65842-7.89554-3.65842 7.55887-3.65842 8.4246C-3.65842 11.554-4.42951 14.0239-6.40301 14.0239L-6.78778 14.0239-6.78778 14.8416ZM0-1.39634 0-14.1419 2.07124-14.1419C3.90045-14.1419 4.61569-14.0767 5.65674-13.7788 8.34392-13.0077 9.34153-11.0916 9.34153-8.39512 9.34153-4.92909 6.88397-1.39634 2.84078-1.39634" fill="#FFFFFF" fill-rule="nonzero" fill-opacity="1" transform="matrix(1 0 0 1.00241 66.0155 26.0705)"/><path d="M0 0C0 2.84078 0.336674 3.22555 2.88888 3.27365L2.88888 4.09284-6.4511 4.09284-6.4511 3.27365-5.58537 3.27365C-3.8508 3.27365-3.22555 2.6484-3.22555 0.91538L-3.22555-0.480963-3.22555-8.90712-3.22555-9.62856-3.22555-9.72631C-3.22555-11.2173-3.90045-11.8922-5.48918-11.8922L-6.4511-11.8922-6.4511-12.7098 0-13.3366" fill="#FFFFFF" fill-rule="nonzero" fill-opacity="1" transform="matrix(1 0 0 1.00241 89.8479 36.8467)"/><path d="M0 0C3.27365-2.79269 4.62345-3.61032 5.87395-3.61032 6.78933-3.61032 8.08948-3.17746 8.90712-2.6003L7.60697 0.674899 7.2222 0.480963C5.44108-0.480963 4.5738-0.817636 3.61187-0.817636 2.50411-0.817636 1.54063-0.288578 0 1.20396L0 9.72631C0 12.4212 0.432866 13 2.35982 13L2.84078 13 2.84078 13.8176-6.21062 13.8176-6.21062 13-5.77776 13C-3.80271 13-3.36984 12.4212-3.36984 9.72631L-3.36984 1.83076-3.36984 0.529059C-3.36984-1.82921-3.8508-2.31017-6.06633-2.31017L-6.73968-2.31017-6.73968-3.12936 0-3.65842" fill="#FFFFFF" fill-rule="nonzero" fill-opacity="1" transform="matrix(1 0 0 1.00241 101.811 27.0969)"/><path d="M0 0 4.6219-4.09284C5.39144-4.76618 5.87395-5.53728 5.87395-6.06633 5.87395-6.98172 5.29524-7.36649 3.80426-7.36649L3.80426-8.18567 13.048-8.18567 13.048-7.36649 12.277-7.36649C10.3997-7.36649 9.1476-6.74123 6.78778-4.6219L3.12936-1.34825 10.2554 5.77776C11.8922 7.36493 12.7595 7.84745 14.4428 7.94364L14.4428 8.76128 8.85902 8.76128 0 0.240481 0 4.66999C0 7.51077 0.336674 7.89554 2.84078 7.94364L2.84078 8.76128-6.16253 8.76128-6.16253 7.94364C-3.70807 7.89554-3.32174 7.46268-3.32174 4.66999L-3.32174-16.1293-3.32174-17.6218C-3.32174-19.7877-3.65842-20.0763-6.35491-20.0763L-6.35491-20.9436 0-21.4727" fill="#FFFFFF" fill-rule="nonzero" fill-opacity="1" transform="matrix(1 0 0 1.00241 117.007 32.1654)"/><path d="M0 0-6.30682 0.480963-6.30682 1.30015C-3.51413 1.34825-3.32174 1.54063-3.27365 4.42951L-3.27365 5.48763-3.27365 29.9934C-0.963477 30.4279 0.288578 30.5241 1.73302 30.5241 4.66999 30.5241 6.83743 30.0912 8.76283 29.0796 11.796 27.4909 13.6252 24.5058 13.6252 21.2306 13.6252 16.5622 10.1592 12.9022 5.72966 12.9022 3.61187 12.9022 1.44444 13.8176 0 15.3582L0 0ZM0 16.6103C1.30015 14.9735 2.6484 14.2024 4.38141 14.2024 7.60697 14.2024 10.0133 17.3317 10.0133 21.5207 10.0133 26.6252 7.36649 29.6583 2.88888 29.6583 0.432866 29.6583 0 29.0315 0 25.2288" fill="#FFFFFF" fill-rule="nonzero" fill-opacity="1" transform="matrix(1 0 0 1.00241 137.13 10.5446)"/><path d="M0 0 0-0.577155C0.0480963-3.94855-3.46603-7.02981-7.31839-7.02981-12.1327-7.02981-15.9354-3.03317-15.9354 2.07124-15.9354 7.1741-12.0846 10.8325-6.73968 10.8325-3.75461 10.8325-1.78111 9.86904 0.288578 7.27029L0.288578 6.01824C-1.9735 8.66664-3.75461 9.8225-5.72811 9.8225-7.55887 9.8225-9.53237 8.61854-10.7844 6.73968-12.0365 4.95857-12.4212 3.41794-12.5655 0L0 0ZM-12.4693-0.819188C-12.0365-4.42951-10.4958-6.11443-7.79935-6.11443-4.91047-6.11443-3.22555-4.18903-3.22555-0.819188" fill="#FFFFFF" fill-rule="nonzero" fill-opacity="1" transform="matrix(1 0 0 1.00241 169.342 30.5247)"/><path d="M0 0-0.722995 0C-1.39634-3.08126-3.65997-5.05476-6.50075-5.05476-9.92024-5.05476-12.2304-2.21398-12.2304 2.02159-12.2304 6.69159-9.34153 10.592-5.82585 10.592-3.46758 10.592-1.59028 9.53237 0.480963 7.07791L0.480963 8.28031C-1.15741 10.592-3.90045 11.9403-6.98172 11.9403-12.038 11.9403-15.5522 8.42615-15.5522 3.41794-15.5522-1.78111-11.7014-5.92205-6.78933-5.92205-5.68312-5.92205-4.33332-5.68156-3.08281-5.29524-2.64995-5.15095-2.26363-5.05476-2.02315-5.05476-1.59028-5.05476-1.15741-5.34489-0.867284-5.87395L-2.06701e-15-5.87395" fill="#FFFFFF" fill-rule="nonzero" fill-opacity="1" transform="matrix(1 0 0 1.00241 188.023 29.4142)"/><path d="M0 0 4.6219-4.09284C5.39144-4.76618 5.87395-5.53728 5.87395-6.06633 5.87395-6.98172 5.29679-7.36649 3.80271-7.36649L3.80271-8.18567 13.048-8.18567 13.048-7.36649 12.277-7.36649C10.3997-7.36649 9.1476-6.74123 6.78933-4.6219L3.12936-1.34825 10.2554 5.77776C11.8922 7.36493 12.7579 7.84745 14.4444 7.94364L14.4444 8.76128 8.85902 8.76128 0 0.240481 0 4.66999C0 7.51077 0.336674 7.89554 2.84078 7.94364L2.84078 8.76128-6.16253 8.76128-6.16253 7.94364C-3.70651 7.89554-3.32174 7.46268-3.32174 4.66999L-3.32174-16.1293-3.32174-17.6218C-3.32174-19.7877-3.65997-20.0763-6.35491-20.0763L-6.35491-20.9436 0-21.4727" fill="#FFFFFF" fill-rule="nonzero" fill-opacity="1" transform="matrix(1 0 0 1.00241 195.532 32.1654)"/><path d="M0 0C-0.72765 0.72765-1.4072 1.0364-2.40792 1.0364-4.20144 1.0364-5.10906-0.142737-5.07803-1.74233L-5.07803-2.36137-5.07803-5.12923-5.07803-5.36661C-5.07803-6.22148-5.28904-6.43559-5.82896-6.43559L-5.93446-6.43559-5.93446-6.8638-3.00679-6.8638-3.00679-6.43559-3.09833-6.43559C-3.65221-6.43559-3.86322-6.22148-3.86322-5.36661L-3.86322-5.12923-3.86322-1.8742C-3.81822-1.02709-3.81822-0.715238-3.55912-0.332019-3.24727 0.130325-2.7508 0.359946-2.06504 0.359946-1.18379 0.359946-0.572501-0.0124119 0-0.788158L0.00775746-5.12923 0.00775746-5.36661C0-6.02755-0.116362-6.43559-0.656281-6.43559L-0.808327-6.43559-0.808327-6.8607 2.08055-6.8607 2.08055-6.43559 1.8742-6.43559C1.5034-6.43404 1.21016-6.22148 1.21016-5.36661L1.21016-5.12923 1.21016-0.898314 1.21016-0.660936C1.21792 0.0605082 1.33428 0.480963 1.8742 0.480963L2.08055 0.480963 2.08055 0.90452 0 0.898314" fill="#FFFFFF" fill-rule="nonzero" fill-opacity="1" transform="matrix(1 0 0 1.00241 64.7557 57.6759)"/><path d="M0 0-0.117913 0C-0.73851 0-0.974337 0.200142-0.974337 1.0426L-0.974337 1.35911-0.974337 7.38045-1.35756 7.38045-6.53644 0.978992-6.56281 0.978992-6.56281 5.69398C-6.56281 6.66986-6.33785 6.90104-5.66605 6.90104L-5.56055 6.90104-5.56055 7.34011-8.06776 7.34011-8.06776 6.91655-7.94985 6.91655C-7.36959 6.91655-7.13221 6.57678-7.13221 5.65519L-7.13221 1.58252-7.13221 1.3529C-7.13221 0.390976-7.33856 0.0620597-8.25239-0.0139634L-8.25239-0.425109-6.14391-0.425109-1.58407 5.27973-1.5577 5.27973-1.5577 1.38548C-1.5577 0.214106-1.75629 0-2.37533 0L-2.4948 0-2.4948-0.425109 3.44501e-16-0.425109" fill="#FFFFFF" fill-rule="nonzero" fill-opacity="1" transform="matrix(1 0 0 1.00241 76.4461 51.2264)"/><path d="M0 0-0.119465 0C-0.73851 0-0.975889 0.200142-0.975889 1.0426L-0.975889 1.35911-0.975889 7.38045-1.35756 7.38045-6.53799 0.978992-6.56436 0.978992-6.56436 5.69398C-6.56436 6.66986-6.33785 6.90104-5.66605 6.90104L-5.56055 6.90104-5.56055 7.34011-8.06931 7.34011-8.06931 6.91655-7.9514 6.91655C-7.37114 6.91655-7.13376 6.57678-7.13376 5.65519L-7.13376 1.58252-7.13376 1.3529C-7.13376 0.390976-7.34011 0.0620597-8.25394-0.0139634L-8.25394-0.425109-6.14391-0.425109-1.58407 5.27973-1.5577 5.27973-1.5577 1.38548C-1.5577 0.214106-1.75784 0-2.37689 0L-2.4948 0-2.4948-0.425109 0-0.425109" fill="#FFFFFF" fill-rule="nonzero" fill-opacity="1" transform="matrix(1 0 0 1.00241 182.689 51.2264)"/><path d="M0 0-0.119465 0C-0.73851 0-0.975889 0.200142-0.975889 1.0426L-0.975889 1.35911-0.975889 7.38045-1.35756 7.38045-6.53799 0.978992-6.56436 0.978992-6.56436 5.69398C-6.56436 6.66986-6.33785 6.90104-5.66605 6.90104L-5.56055 6.90104-5.56055 7.34011-8.06931 7.34011-8.06931 6.91655-7.94985 6.91655C-7.37114 6.91655-7.13376 6.57678-7.13376 5.65519L-7.13376 1.58252-7.13376 1.3529C-7.13376 0.390976-7.33856 0.0620597-8.25394-0.0139634L-8.25394-0.425109-6.14391-0.425109-1.58407 5.27973-1.55925 5.27973-1.55925 1.38548C-1.55925 0.214106-1.75784 0-2.37689 0L-2.4948 0-2.4948-0.425109 0-0.425109" fill="#FFFFFF" fill-rule="nonzero" fill-opacity="1" transform="matrix(1 0 0 1.00241 210.515 51.2264)"/><path d="M0 0-2.91525 0-2.91525-0.423557-2.80975-0.423557C-2.26983-0.423557-2.03245-0.709032-2.03245-1.56546L-2.03245-1.80283-2.03245-6.03375-2.03245-6.27113C-2.10227-7.19427-2.26983-7.34011-2.80975-7.34011L-2.91525-7.34011-2.91525-7.76522 0-7.76522 0-7.34011-0.0930895-7.34011C-0.646972-7.34011-0.848666-7.06239-0.856424-6.25562L-0.856424-6.01824-0.856424-1.78887-0.856424-1.55149C-0.856424-0.695069-0.646972-0.423557-0.0930895-0.423557L-8.61252e-17-0.423557" fill="#FFFFFF" fill-rule="nonzero" fill-opacity="1" transform="matrix(1 0 0 1.00241 80.7438 58.5826)"/><path d="M0 0-2.91525 0-2.91525-0.423557-2.80975-0.423557C-2.26983-0.423557-2.0309-0.709032-2.0309-1.56546L-2.0309-1.80283-2.0309-6.03375-2.0309-6.27113C-2.10072-7.19427-2.26983-7.34011-2.80975-7.34011L-2.91525-7.34011-2.91525-7.76522 0-7.76522 0-7.34011-0.0930895-7.34011C-0.645421-7.34011-0.847115-7.06239-0.856424-6.25562L-0.856424-6.01824-0.856424-1.78887-0.856424-1.55149C-0.856424-0.695069-0.645421-0.423557-0.0930895-0.423557L-8.61252e-17-0.423557" fill="#FFFFFF" fill-rule="nonzero" fill-opacity="1" transform="matrix(1 0 0 1.00241 115.24 58.5826)"/><path d="M0 0C-0.671796 0.117913-0.932447 0.319607-1.35445 1.41186L-3.59791 7.40682-3.97958 7.40682-6.31302 1.25205C-6.66831 0.290129-6.96155 0.0543022-7.60697 0.0139634L-7.60697-0.411145-4.63741-0.411145-4.63741 0C-5.04545 0.0124119-5.31076 0.141186-5.31076 0.417351-5.31076 0.536816-5.29679 0.529059-5.15251 0.898314L-5.07338 1.1481-3.47379 5.37127-1.91299 1.21637C-1.79508 0.885902-1.71595 0.640766-1.71595 0.470102-1.71595 0.139634-1.91454 0.0279269-2.40171 0.0139634L-2.40171-0.411145 3.44501e-16-0.411145" fill="#FFFFFF" fill-rule="nonzero" fill-opacity="1" transform="matrix(1 0 0 1.00241 89.3996 51.2108)"/><path d="M0 0-0.397182 0C-0.58181-0.791261-0.760231-1.00226-1.60424-1.00226L-3.67704-1.00226-3.67704 2.11779-1.94557 2.11779C-1.11552 2.11779-1.08294 2.05107-0.937101 1.4584-0.924689 1.44599-0.924689 1.41962-0.910726 1.37928L-0.515095 1.37928-0.515095 3.41173-0.926241 3.41173C-1.0969 2.76631-1.11552 2.68718-1.93316 2.68718L-3.67704 2.68718-3.67704 5.11372-3.67704 5.31231C-3.67704 5.82585-3.62739 5.79327-2.91525 5.79327L-1.79508 5.79327C-0.662487 5.79327-0.516647 5.60864-0.148943 4.66068L0.305644 4.66068-0.094641 6.2851-5.7219 6.2851-5.7219 5.84602-5.61795 5.84602C-5.07648 5.84602-4.86703 5.57451-4.86703 4.71964L-4.86703 4.48226-4.86703 0.251342-4.88099 0.0139634C-4.88099-0.840909-5.07648-1.05501-5.61795-1.05501L-5.7219-1.05501-5.7219-1.48012-0.0806776-1.48012" fill="#FFFFFF" fill-rule="nonzero" fill-opacity="1" transform="matrix(1 0 0 1.00241 95.9887 52.2839)"/><path d="M0 0 0.38477-0.0139634C0.778849-0.0139634 0.910726 0.00465448 1.16052 0.162907 1.31877 0.268408 1.5096 0.425109 1.61355 0.556986 1.86489 0.833151 2.1876 1.36066 2.68874 2.20312 3.26124 3.12626 3.31244 3.16815 3.61963 3.50482L5.32627 3.49241 5.33713 3.0673 5.27197 3.0673C4.75377 3.06265 4.39848 2.64685 3.76702 1.61821L3.20073 0.69662C2.84389 0.117913 2.8082 0.0403388 2.30707-0.302541 3.33416-0.59267 3.74996-1.31722 3.74996-2.11624 3.74996-2.97731 3.30778-3.55137 2.68874-3.90821 2.24035-4.18437 1.68802-4.27281 0.805224-4.27281L-2.07279-4.27281-2.07279-3.84925-1.9797-3.84925C-1.43978-3.84925-1.21637-3.61963-1.21637-2.76476L-1.21637-2.52738-1.21637 1.64458-1.21637 1.88196C-1.21637 2.73994-1.43978 3.05334-1.9797 3.05334L-2.07279 3.05334-2.07279 3.49241 0.856424 3.49241 0.856424 3.0673 0.764886 3.0673C0.211003 3.0673 0 2.80975 0 1.95488L0 1.7175 0 0ZM-0.00155149-3.79185 0.659384-3.79805C1.79352-3.77323 2.48549-3.13091 2.48549-2.10382 2.48549-1.60424 2.30707-1.19775 1.94867-0.879696 1.65855-0.622148 1.37152-0.539919 0.875042-0.539919L-0.0108604-0.535265" fill="#FFFFFF" fill-rule="nonzero" fill-opacity="1" transform="matrix(1 0 0 1.00241 99.8147 55.0849)"/><path d="M0 0-0.417351 0-0.429763-0.105501C-0.575604-0.698171-0.70748-1.01623-1.0364-1.26602-1.32653-1.49098-1.65855-1.612-2.04021-1.60735-2.80044-1.59804-3.28141-1.02554-3.26124-0.479411-3.24882-0.156701-3.10298 0.189282-2.80044 0.479411-2.61737 0.650075-2.35827 0.840909-2.12089 0.997609-1.94867 1.10311-1.70664 1.26602-1.29705 1.51736-0.690414 1.89903-0.383219 2.13485-0.097744 2.48394 0.235827 2.89043 0.406491 3.3807 0.406491 3.85546 0.409594 5.05942-0.586464 6.09116-1.86955 6.09116-2.27914 6.09116-2.48549 6.04927-3.11695 5.84137-3.42259 5.74052-3.52964 5.69242-3.5824 5.69242-3.67238 5.69242-3.72513 5.78551-3.79185 5.98411L-4.19834 5.98411-4.19213 3.72513-3.75461 3.72513-3.7422 3.87097C-3.66618 4.56914-3.56378 4.86703-3.12936 5.19595-2.81286 5.4597-2.46377 5.59003-2.05573 5.59003-1.145 5.59003-0.628354 5.05321-0.628354 4.29453-0.628354 3.97958-0.75868 3.62739-1.21947 3.25969-1.49564 3.02231-1.79818 2.80355-2.11468 2.60651-2.60185 2.29-2.94008 2.08676-3.11074 1.96729-3.29537 1.83542-3.5343 1.59183-3.70651 1.39479-4.03543 0.986749-4.1549 0.502683-4.1549-0.0248239-4.15645-1.24895-3.21159-2.06038-1.99832-2.06038-1.61665-2.06038-1.39324-2.02004-0.944859-1.87575-0.681105-1.78266-0.620597-1.7687-0.538368-1.75939-0.439072-1.74853-0.406491-1.81214-0.408042-1.91454-0.408042-1.92695-0.408042-1.93937-0.408042-1.96729L8.61252e-17-1.96729" fill="#FFFFFF" fill-rule="nonzero" fill-opacity="1" transform="matrix(1 0 0 1.00241 110.446 52.6649)"/><path d="M0 0 0.0558537 1.71595-0.314953 1.71595-0.341328 1.61045C-0.564743 0.871939-0.847115 0.63456-1.823 0.63456L-2.92301 0.63456-2.92301 6.00117-2.92301 6.27734C-2.92301 7.10739-2.69805 7.36493-2.17054 7.36493L-2.05262 7.36493-2.05262 7.80401-4.9415 7.80401-4.9415 7.36493-4.84996 7.36493C-4.29608 7.36493-4.08508 7.09342-4.08508 6.23855L-4.08508 6.00117-4.08508 0.63456-5.09355 0.63456C-6.14701 0.63456-6.40146 0.871939-6.56126 1.67561L-6.97085 1.67561-6.94603 0" fill="#FFFFFF" fill-rule="nonzero" fill-opacity="1" transform="matrix(1 0 0 1.00241 123.402 50.7613)"/><path d="M0 0C-0.48872 0.0403388-0.656281 0.124119-0.997609 0.491823L-1.15586 0.741613-2.93853 3.50172-2.93853 5.55124-2.93853 5.78862C-2.93853 6.64504-2.71356 6.93052-2.17364 6.93052L-2.0821 6.93052-2.0821 7.35407-5.00977 7.35407-5.00977 6.93052-4.86548 6.93052C-4.28522 6.92741-4.10059 6.64504-4.10059 5.78862L-4.10059 5.55124-4.10059 3.48775-5.70484 0.996058C-6.23234 0.178422-6.44645 0.0527507-7.05153 0L-7.05153-0.411145-3.90045-0.411145-3.90045 0.0139634-4.0587 0.0139634C-4.44037 0.0139634-4.66689 0.0760231-4.67775 0.282372-4.6824 0.359946-4.625 0.465448-4.54587 0.609736L-4.40158 0.834703-3.15729 2.77097-2.04642 1.05967C-1.8742 0.783504-1.75474 0.533713-1.75474 0.361498-1.75474 0.0713686-1.92695 0.0139634-2.26983 0.0139634L-2.26983-0.411145 3.44501e-16-0.411145" fill="#FFFFFF" fill-rule="nonzero" fill-opacity="1" transform="matrix(1 0 0 1.00241 131.189 51.2108)"/><path d="M0 0C-2.38154 0-4.17972 1.74543-4.17972 4.04629-4.17972 6.33319-2.36758 8.14689-0.0543022 8.14689 2.24656 8.14689 4.0587 6.33319 4.0587 4.03388 4.0587 1.78732 2.27294 0 0 0ZM-0.0248239 0.453036C1.74698 0.453036 2.67788 1.99212 2.67788 4.10525 2.67788 6.16253 1.68802 7.66747-0.0961925 7.66747-1.84162 7.66747-2.86871 6.05547-2.86871 3.97803-2.86871 1.92075-1.83852 0.453036-0.0248239 0.453036" fill="#FFFFFF" fill-rule="nonzero" fill-opacity="1" transform="matrix(1 0 0 1.00241 141.244 50.6012)"/><path d="M0 0C-2.38154 0-4.18127 1.74543-4.18127 4.04629-4.18127 6.33319-2.36758 8.14689-0.0543022 8.14689 2.24501 8.14689 4.0587 6.33319 4.0587 4.03388 4.0587 1.78732 2.27294 0 0 0ZM-0.0263754 0.453036C1.74698 0.453036 2.67788 1.99212 2.67788 4.10525 2.67788 6.16253 1.68802 7.66747-0.097744 7.66747-1.84317 7.66747-2.86871 6.05547-2.86871 3.97803-2.86871 1.92075-1.83852 0.453036-0.0263754 0.453036" fill="#FFFFFF" fill-rule="nonzero" fill-opacity="1" transform="matrix(1 0 0 1.00241 169.339 50.6012)"/><path d="M0 0C-2.37999 0-4.17972 1.74543-4.17972 4.04629-4.17972 6.33319-2.36603 8.14689-0.0527507 8.14689 2.24656 8.14689 4.06026 6.33319 4.06026 4.03388 4.06026 1.78732 2.27294 0 0 0ZM-0.0248239 0.453036C1.74698 0.453036 2.67788 1.99212 2.67788 4.10525 2.67788 6.16253 1.68957 7.66747-0.0961925 7.66747-1.84162 7.66747-2.86716 6.05547-2.86716 3.97803-2.86716 1.92075-1.83697 0.453036-0.0248239 0.453036" fill="#FFFFFF" fill-rule="nonzero" fill-opacity="1" transform="matrix(1 0 0 1.00241 197.402 50.6012)"/><path d="M0 0-0.411145 0C-0.58181-0.868836-0.733856-1.06743-1.55149-1.06743L-3.36053-1.06743-3.36053 1.93471-1.78887 1.93471C-0.944859 1.93471-0.833151 1.80283-0.754025 1.0907L-0.34288 1.0907-0.34288 3.41328-0.754025 3.41328C-0.845563 2.67477-0.944859 2.57082-1.80128 2.57082L-3.36053 2.57082-3.36053 4.4171-3.36053 4.65448C-3.36053 5.5109-3.14953 5.78241-2.60961 5.78241L-2.50411 5.78241-2.50411 6.21993-5.44729 6.21993-5.44729 5.78241-5.34024 5.78241C-4.80032 5.78241-4.58931 5.38213-4.58931 4.5257L-4.58931 4.28832-4.58931 0.187731-4.58931-0.0496478C-4.58931-0.906071-4.78635-1.12018-5.32627-1.12018L-5.44729-1.12018-5.44729-1.54529-0.0651627-1.54529" fill="#FFFFFF" fill-rule="nonzero" fill-opacity="1" transform="matrix(1 0 0 1.00241 151.777 52.3477)"/><path d="M0 0-5.65519 0-5.65519-0.439072-5.57606-0.439072C-4.98339-0.439072-4.79877-0.722995-4.79877-1.80283L-4.79877-6.03375-4.78635-6.37508C-4.78635-7.13997-5.00977-7.34011-5.53572-7.34011L-5.65519-7.34011-5.65519-7.76522-2.73994-7.76522-2.73994-7.34011-2.81751-7.34011C-3.41173-7.34011-3.59791-7.13531-3.59791-6.04151L-3.59481-1.77646-3.59481-1.3017C-3.59791-0.705929-3.55137-0.597324-2.95714-0.570949L-2.52273-0.556986-1.32497-0.556986C-0.401836-0.556986-0.263754-0.755577 0.0791261-1.84783L0.546125-1.84783" fill="#FFFFFF" fill-rule="nonzero" fill-opacity="1" transform="matrix(1 0 0 1.00241 163.815 58.5826)"/><path d="M0 0 3.56843 0C4.41089 0 5.10286-0.121016 5.69553-0.344431 7.13221-0.871939 8.0057-2.21243 8.0057-3.7934 8.0057-5.26887 7.12755-6.64659 5.84913-7.30443 5.559-7.45027 5.25646-7.55577 4.95391-7.63489 4.46675-7.75281 4.12076-7.76522 3.16039-7.76522L0-7.76522 0-7.34011 0.0930895-7.34011C0.633009-7.34011 0.857975-7.13997 0.857975-6.2851L0.857975-6.04617 0.857975-1.80283 0.857975-1.56546C0.857975-0.709032 0.662487-0.439072 0.122568-0.439072L0-0.439072 0 0ZM2.08676-7.29512 3.13712-7.29822C4.15179-7.29822 4.70723-7.19892 5.21922-6.83277 6.08495-6.21528 6.61401-5.16647 6.61401-3.77013 6.61401-2.75545 6.40921-2.06814 5.90808-1.46306 5.34179-0.777298 4.69637-0.480963 3.54981-0.480963L2.98197-0.480963C2.21708-0.480963 2.08676-0.774195 2.08676-1.80594" fill="#FFFFFF" fill-rule="nonzero" fill-opacity="1" transform="matrix(1 0 0 1.00241 183.854 58.5826)"/><path d="M0 0C-1.72836 0-3.12936-1.401-3.12936-3.12936-3.12936-3.7934-2.92301-4.40934-2.57082-4.91513L-2.59409-4.92288C-4.08818-4.69482-5.21301-3.36984-5.21301-1.80904-5.21301-0.091538-3.85391 1.33894-2.1364 1.33894-1.06432 1.33894-0.102398 0.781952 0.466999-0.0558537" fill="#FFFFFF" fill-rule="nonzero" fill-opacity="1" transform="matrix(1 0 0 1.00241 89.9069 17.8542)"/><path d="M0 0C18.3635-9.5153 18.8413-18.0982 19.5007-29.981L19.4914-49.3592 19.4992-51.3544-21.1949-51.3544-21.1996-49.3716-21.2275-30.0415-21.2275-29.9841-21.2244-29.9267C-20.5635-18.047-20.0856-9.4641-1.72216 0.0511992L-0.856424 0.499581" fill="#8E0A26" fill-rule="nonzero" fill-opacity="1" transform="matrix(1 0 0 1.00241 32.6894 60.1192)"/><path d="M0 0-0.0310298 19.3316C0.629906 31.2036 1.19465 38.7408 18.4007 47.6572 21.5114 46.2143 24.422 44.351 27.2783 42.2844 35.3368 36.7161 36.7486 27.2737 36.7207 18.4271L36.8076 0" fill="#FFFFFF" fill-rule="nonzero" fill-opacity="1" transform="matrix(1 0 0 1.00241 13.4835 10.6628)"/><g clip-path="url(#clip0)"><path d="M185.352-842.232 191.532-842.232 191.532-848.806 185.352-848.806 185.352-842.232Z" fill="#8E0A26" fill-rule="nonzero" fill-opacity="1" transform="matrix(1 0 0 1.00241 -171.018 880.7)"/><path d="M185.352-829.012 191.532-829.012 191.532-835.637 185.352-835.637 185.352-829.012Z" fill="#8E0A26" fill-rule="nonzero" fill-opacity="1" transform="matrix(1 0 0 1.00241 -171.018 880.7)"/><path d="M191.535-835.652 197.713-835.652 197.713-842.228 191.535-842.228 191.535-835.652Z" fill="#8E0A26" fill-rule="nonzero" fill-opacity="1" transform="matrix(1 0 0 1.00241 -171.018 880.7)"/><path d="M191.535-822.477 197.713-822.477 197.713-829.052 191.535-829.052 191.535-822.477Z" fill="#8E0A26" fill-rule="nonzero" fill-opacity="1" transform="matrix(1 0 0 1.00241 -171.018 880.7)"/><path d="M214.157-842.237 220.337-842.237 220.337-848.811 214.157-848.811 214.157-842.237Z" fill="#8E0A26" fill-rule="nonzero" fill-opacity="1" transform="matrix(1 0 0 1.00241 -171.018 880.7)"/><path d="M214.157-829.062 220.337-829.062 220.337-835.659 214.157-835.659 214.157-829.062Z" fill="#8E0A26" fill-rule="nonzero" fill-opacity="1" transform="matrix(1 0 0 1.00241 -171.018 880.7)"/><path d="M207.978-835.657 214.156-835.657 214.156-842.232 207.978-842.232 207.978-835.657Z" fill="#8E0A26" fill-rule="nonzero" fill-opacity="1" transform="matrix(1 0 0 1.00241 -171.018 880.7)"/><path d="M207.978-822.482 214.156-822.482 214.156-829.057 207.978-829.057 207.978-822.482Z" fill="#8E0A26" fill-rule="nonzero" fill-opacity="1" transform="matrix(1 0 0 1.00241 -171.018 880.7)"/><path d="M0 0 0.144289-18.109-35.8209-18.1183-35.9434 0" fill="#8E0A26" fill-rule="nonzero" fill-opacity="1" transform="matrix(1 0 0 1.00241 49.6907 28.4453)"/></g><path d="M0 0C0.0434418-0.389425-0.262202-0.736959-0.262202-0.736959-1.16983-0.996058-1.99367-2.42498-0.434418-3.33571 1.12483-4.24333 0.865733-4.96633 0.865733-4.96633L-0.954168-4.96633C-1.95023-4.96633-1.99367-5.36971-1.99367-5.36971-1.99367-5.36971-2.03556-4.96633-3.03472-4.96633L-4.85152-4.96633C-4.85152-4.96633-5.11217-4.24333-3.55137-3.33571-1.99367-2.42498-2.81596-0.996058-3.72358-0.736959-3.72358-0.736959-4.02922-0.389425-3.98578 -5.16751e-16" fill="#FFFFFF" fill-rule="evenodd" fill-opacity="1" transform="matrix(1 0 0 1.00241 22.6032 24.2835)"/><path d="M0 0C0 0-1.47081-1.22258-0.721444-2.13485-0.721444-2.13485-0.125671-3.14177-0.183076-4.0075-0.183076-4.0075 1.21947-1.72681 0.597324-0.774195-0.0232724 0.178422 0 0 0 0" fill="#FFFFFF" fill-rule="evenodd" fill-opacity="1" transform="matrix(1 0 0 1.00241 20.5955 18.5991)"/><path d="M0 0C0.0418903-0.389425-0.260651-0.735407-0.260651-0.735407-1.16983-0.994506-1.99212-2.42498-0.434418-3.33416 1.12638-4.24333 0.865733-4.96633 0.865733-4.96633L-0.951065-4.96633C-1.95023-4.96633-1.99212-5.36816-1.99212-5.36816-1.99212-5.36816-2.03556-4.96633-3.03162-4.96633L-4.85152-4.96633C-4.85152-4.96633-5.11062-4.24333-3.55137-3.33416-1.99212-2.42498-2.81441-0.994506-3.72513-0.735407-3.72513-0.735407-4.02767-0.389425-3.98578 0" fill="#FFFFFF" fill-rule="evenodd" fill-opacity="1" transform="matrix(1 0 0 1.00241 45.1463 24.2135)"/><path d="M0 0C0 0-1.47081-1.22413-0.722995-2.13485-0.722995-2.13485-0.124119-3.14332-0.183076-4.0075-0.183076-4.0075 1.21792-1.72991 0.597324-0.775746-0.0232724 0.17687 0 0 0 0" fill="#FFFFFF" fill-rule="evenodd" fill-opacity="1" transform="matrix(1 0 0 1.00241 43.1387 18.5323)"/><path d="M0 0C0 0-0.255996-0.910726 0.740062-1.02088 1.71905-1.13104 1.7687-0.996058 1.7687-0.996058 1.7687-0.996058 2.02935 0.560089 0 0ZM-1.16672-0.0217209C-3.10454 0.511992-2.85475-0.971234-2.85475-0.971234-2.85475-0.971234-2.76786-1.07053-1.87575-0.971234-0.974337-0.870387-1.16672-0.0217209-1.16672-0.0217209ZM3.15729-3.08126C3.15729-3.08126 2.19846-2.72442 1.68647-2.49945 1.68647-2.49945 1.03174-2.83458-0.560089-2.83458-2.15347-2.83458-2.80975-2.49945-2.80975-2.49945-3.31864-2.72442-4.27902-3.08126-4.27902-3.08126-4.44503-1.99677-3.6367-1.49254-3.6367-1.49254-3.76857-1.1931-3.97803-0.622148-3.87563 0.147392-3.72513 1.35756-2.49945 1.4584-1.57942 1.25981-0.659384 1.06432-0.560089 1.90368-0.560089 1.90368-0.560089 1.90368-0.460793 1.06432 0.45769 1.25981 1.37773 1.4584 2.60185 1.35756 2.7539 0.147392 2.85319-0.622148 2.6484-1.1931 2.51497-1.49254 2.51497-1.49254 3.3233-1.99677 3.15729-3.08126" fill="#FFFFFF" fill-rule="nonzero" fill-opacity="1" transform="matrix(1 0 0 1.00241 31.1643 15.4296)"/><path d="M0 0C-0.522853 0.97744-2.25277 0.608185-2.56927 0.577155-3.40087 0.499581-3.42259 1.33428-3.42259 1.41031-3.42259 1.33428-3.44586 0.499581-4.27591 0.577155-4.01371 0.552331-6.45266 0.972786-6.76916-0.091538L-6.77537-0.378564C-6.77537-0.378564-7.82728 1.49719-6.26803 3.64911-4.96943 5.44263-4.28832 6.39525-4.09284 7.85365-3.89425 9.31361-4.8841 9.04055-5.75138 9.09174-6.61401 9.13984-6.51627 10.1778-6.51627 10.1778-6.36888 10.0304-5.79948 10.0816-5.79948 10.0816-4.18903 10.575-3.86942 10.1033-3.54981 9.461-3.2271 8.81868-2.38309 8.59992-2.16433 8.0538-2.06504 7.80401-2.73683 7.52163-2.90284 7.31529-3.00059 7.19427-2.92456 7.01895-2.6546 7.11669-2.38309 7.21599-2.21243 6.96465-2.2869 6.78933-2.36137 6.61711-2.55996 6.37043-2.70891 6.24786-2.8563 6.12374-2.98042 5.72811-2.55996 5.90032-1.91299 6.16718-1.90368 5.72811-1.90368 5.35575-1.90368 5.35575-1.43358 5.67846-1.13724 7.3339-0.84246 8.99245-0.91538 8.96607-2.0278 9.09174-3.13867 9.21431-2.79579 10.3267-2.79579 10.3267-2.74769 10.1281-2.52273 9.9823-2.29931 10.004-2.07745 10.0304-1.93161 10.004-1.21016 10.1033-0.493374 10.2026 0.147392 9.93265 0.961925 9.90628 1.77801 9.88145 2.22329 10.1033 2.24966 9.9823 2.3924 9.26086 1.55615 9.09174 0.940204 9.04055 0.319607 8.99245 0.0248239 8.54717 0.394079 8.29893 0.764886 8.0538 0.764886 7.97622 0.640766 7.85365 0.394079 7.60697 0.110156 7.39752 0.170664 7.25943 0.294784 6.98792 0.468551 7.30908 0.614391 7.06394 0.78971 6.77692 0.246687 6.32078 0.246687 6.32078 0.690414 6.27113 1.11087 6.17184 1.30791 6.76606 1.5065 7.35873 1.52977 7.50922 1.72836 7.92968 1.9285 8.34858 2.0759 8.34858 2.61892 8.24928 3.57154 8.07552 4.25264 8.07552 4.25264 8.07552 3.26279 5.32938 3.03006 5.61795 3.03006 5.61795-1.12328 6.1346-2.40481 3.19918-2.40481 3.19918L-2.19381 2.81286C0.111707 4.90272 2.7508 4.37211 2.7508 4.37211 1.6632 0.339777 0.443727 0.296335 0 0" fill="#FFFFFF" fill-rule="nonzero" fill-opacity="1" transform="matrix(1 0 0 1.00241 34.0268 17.3767)"/><path d="M0 0 3.87408-2.01229 3.87408-27.3419-3.8446-27.3419-3.8446-2.14882" fill="#8E0A26" fill-rule="nonzero" fill-opacity="1" transform="matrix(1 0 0 1.00241 31.8175 57.2622)"/><path d="M0 0 0-13.4902C0-15.3287 0.23893-16.6553 0.435969-17.673 0.828497-16.0285 0.913829-13.5135 0.913829-13.5135L0.913829-0.0232724" fill="#FFFFFF" fill-rule="nonzero" fill-opacity="1" transform="matrix(1 0 0 1.00241 32.0021 49.5871)"/><path d="M0 0C-0.335122 0.513544-0.960374 2.56617-1.03329 5.14475L-1.03329 18.4659-1.64768 18.4659C-1.64768 18.4659-1.64768 6.16563-1.64768 5.14475-1.64768 4.12542-0.913829-0.418903-0.411145-0.418903-0.190834-0.418903-0.153598-0.443727 0 1.378e-15" fill="#FFFFFF" fill-rule="nonzero" fill-opacity="1" transform="matrix(1 0 0 1.00241 32.2534 30.8824)"/><path d="M0 0-1.92385 0.110156-3.79185 0-4.86548-0.332019-4.86548 0.851769-3.12626 1.25826-1.94247 1.25826-1.90523 1.25826-0.66559 1.25826 1.07208 0.851769 1.07208-0.332019" fill="#FFFFFF" fill-rule="nonzero" fill-opacity="1" transform="matrix(1 0 0 1.00241 33.718 49.2434)"/><path d="M0 0C0 0.138083 0 0.305644 0 0.37391 0 0.443727-0.0139634 0.651627-0.277717 0.651627-0.541471 0.651627-1.20706 0.651627-1.20706 0.651627-1.20706 0.651627-1.84472 0.651627-2.11003 0.651627-2.37223 0.651627-2.38619 0.443727-2.38619 0.37391-2.38619 0.305644-2.38619 0.138083-2.38619 0" fill="#FFFFFF" fill-rule="nonzero" fill-opacity="1" transform="matrix(1 0 0 1.00241 33.0385 50.5063)"/><path d="M0 0C1.2955 0 1.25826-1.44289 1.25826-1.44289L0.0372358-1.44289-1.18379-1.44289C-1.18379-1.44289-1.22102 0 0.0744716 0" fill="#FFFFFF" fill-rule="nonzero" fill-opacity="1" transform="matrix(1 0 0 1.00241 31.757 55.9823)"/><path d="M0 0C0.283923-0.809879 0.162907-3.72979 0.162907-3.72979L-1.54063-3.72979C-1.54063-3.72979-1.66165-0.809879-1.37928 0" fill="#FFFFFF" fill-rule="nonzero" fill-opacity="1" transform="matrix(1 0 0 1.00241 32.4924 55.0196)"/></g></g></svg>